<?xml version="1.0" standalone="no"?><!DOCTYPE svg PUBLIC "-//W3C//DTD SVG 1.1//EN"
        "http://www.w3.org/Graphics/SVG/1.1/DTD/svg11.dtd">
<svg viewBox="0 0 1024 1024" version="1.1" xmlns="http://www.w3.org/2000/svg"
     xmlns:xlink="http://www.w3.org/1999/xlink" width="128" height="128">
    <path fill="var(--path-fill)"
          d="M847.5 960h-640c-52.9 0-96-43.1-96-96v-97h64v97c0 17.6 14.4 32 32 32h640c17.6 0 32-14.4 32-32V160c0-17.6-14.4-32-32-32h-640c-17.6 0-32 14.4-32 32v95.1h-64V160c0-52.9 43.1-96 96-96h640c52.9 0 96 43.1 96 96v704c0 52.9-43.1 96-96 96z"></path>
    <path fill="var(--path-fill)"
          d="M112.5 384h64v256h-64zM80.5 288h128v64h-128zM80.5 672h128v64h-128zM768 352H320c-17.7 0-32-14.3-32-32s14.3-32 32-32h448c17.7 0 32 14.3 32 32s-14.3 32-32 32zM768 544H320c-17.7 0-32-14.3-32-32s14.3-32 32-32h448c17.7 0 32 14.3 32 32s-14.3 32-32 32zM768 737H320c-17.7 0-32-14.3-32-32s14.3-32 32-32h448c17.7 0 32 14.3 32 32s-14.3 32-32 32z"></path>
</svg>
